Coordinates
version=1
nRows=11
nColumns=40
inDegrees=yes

Units are S.I. units (second, meters, Newtons, ...)
Angles are in degrees.

endheader
time	pelvis_tilt	pelvis_list	pelvis_rotation	pelvis_tx	pelvis_ty	pelvis_tz	hip_flexion_r	hip_adduction_r	hip_rotation_r	knee_angle_r	knee_angle_r_beta	ankle_angle_r	subtalar_angle_r	mtp_angle_r	hip_flexion_l	hip_adduction_l	hip_rotation_l	knee_angle_l	knee_angle_l_beta	ankle_angle_l	subtalar_angle_l	mtp_angle_l	lumbar_extension	lumbar_bending	lumbar_rotation	arm_flex_r	arm_add_r	arm_rot_r	elbow_flex_r	pro_sup_r	wrist_flex_r	wrist_dev_r	arm_flex_l	arm_add_l	arm_rot_l	elbow_flex_l	pro_sup_l	wrist_flex_l	wrist_dev_l
     23.90750000	     -2.57162344	     -4.39249520	     -4.21148509	      1.08419142	      0.92962617	      0.45432774	     17.29040334	     -1.30518194	     -8.67347512	     20.46818509	     20.46818509	      8.27109714	      2.87845332	     -0.36772015	      0.08316000	     -8.64704859	    -15.47287984	     20.85687316	     20.85687316	     20.15337384	     -1.11218943	     -1.66292175	     -9.18328749	      2.47815627	     -2.14047786	      1.96759689	    -17.03829296	     -1.83142771	     58.46818977	     45.13129037	      0.00000000	      0.00000000	      7.30151550	    -13.16833062	    -10.53671233	     37.69159667	     46.77111346	      0.00000000	      0.00000000
     23.92114286	     -2.65762365	     -4.49645327	     -4.16203675	      1.08499769	      0.92951733	      0.45815267	     17.01475038	     -0.95571294	     -8.65087776	     20.67666019	     20.67666019	      8.75408765	      2.67634556	     -0.38483590	      0.76937445	     -9.28397623	    -14.95856235	     22.77171766	     22.77171766	     19.95918972	     -2.02857795	     -1.93306424	     -8.95065595	      2.62782177	     -2.33922662	      2.67319502	    -17.10572744	     -1.56895495	     60.77626479	     45.04876592	      0.00000000	      0.00000000	      5.99008169	    -13.32851975	    -10.85654760	     37.67796478	     46.78558657	      0.00000000	      0.00000000
     23.93478571	     -2.57410454	     -4.55010657	     -4.11107322	      1.08588027	      0.92963022	      0.46196700	     16.53650961	     -0.66558071	     -8.61451760	     20.86566022	     20.86566022	      9.25853008	      2.53296705	     -0.44573624	      1.41323887	     -9.88158610	    -14.38246644	     24.92245103	     24.92245103	     19.53544199	     -3.02968899	     -2.50967045	     -8.92410218	      2.68193554	     -2.30373203	      3.35427784	    -17.32933837	     -1.27235063	     62.90844736	     44.97267383	      0.00000000	      0.00000000	      4.91799115	    -13.40468421	    -11.17278972	     37.74562226	     46.80348236	      0.00000000	      0.00000000
     23.94842857	     -2.40905824	     -4.52924511	     -4.02751263	      1.08669872	      0.92979798	      0.46571353	     15.98503881	     -0.45891444	     -8.50791477	     21.07081489	     21.07081489	      9.82300943	      2.29915307	     -0.46277205	      2.12656336	    -10.39073653	    -13.63704563	     27.23588056	     27.23588056	     18.32788310	     -4.51741450	     -4.50741322	     -9.04788513	      2.67105660	     -2.12408767	      3.57965432	    -18.03795933	     -0.26296261	     66.57646256	     44.83486099	      0.00000000	      0.00000000	      3.76548438	    -13.38199096	    -12.00838814	     38.46066509	     46.87134351	      0.00000000	      0.00000000
     23.96207143	     -2.22901111	     -4.56813641	     -3.88220615	      1.08739450	      0.93001639	      0.46941459	     15.35172371	     -0.21219054	     -8.57501737	     21.15335227	     21.15335227	     10.28796167	      2.24523182	     -0.61295948	      3.20775756	    -11.09160958	    -12.87538522	     30.26506722	     30.26506722	     17.48911354	     -5.61169742	     -5.30569030	     -9.12674544	      2.67980398	     -1.96781644	      4.70097878	    -18.09031344	     -0.40001338	     67.59392200	     44.81446925	      0.00000000	      0.00000000	      3.04706418	    -13.48025556	    -12.11314545	     38.12923188	     46.86957198	      0.00000000	      0.00000000
     23.97571429	     -2.25532966	     -4.57257442	     -3.66357493	      1.08779904	      0.92987585	      0.47290896	     14.95681839	      0.01036194	     -8.60302295	     21.21647620	     21.21647620	     10.72937764	      2.01293797	     -0.76303759	      4.87042181	    -11.76906001	    -11.81106804	     33.76681407	     33.76681407	     16.13699782	     -7.03348202	     -6.53177482	     -8.98245782	      2.68433497	     -2.05433297	      5.67663973	    -18.14677980	     -0.41810238	     69.22743403	     44.76946290	      0.00000000	      0.00000000	      2.06084405	    -13.50655448	    -12.27977299	     37.79829729	     46.87101366	      0.00000000	      0.00000000
     23.98935714	     -2.17477109	     -4.46383125	     -3.42431836	      1.08809142	      0.92977101	      0.47613518	     14.52072355	      0.10752958	     -8.46238861	     21.36915754	     21.36915754	     11.09231796	      1.50465189	     -1.08081416	      6.40751018	    -12.13985197	    -10.45734501	     36.89480873	     36.89480873	     12.39234590	    -10.19696558	    -12.16159524	     -9.04891541	      2.61191859	     -1.92619978	      5.85927165	    -19.02166878	      0.60779390	     73.66331522	     44.62334923	      0.00000000	      0.00000000	      1.03629952	    -13.39404321	    -13.29569076	     38.31715059	     46.95732142	      0.00000000	      0.00000000
     24.00300000	     -2.10945748	     -4.49028750	     -3.07762956	      1.08812429	      0.92959366	      0.47918284	     14.07495773	      0.29633277	     -8.60241005	     21.47114097	     21.47114097	     11.46317079	      1.28467308	     -1.35291787	      8.39300686	    -12.75365157	     -9.10055549	     40.78388829	     40.78388829	      9.72923101	    -12.24070457	    -14.55668230	     -9.04834051	      2.64434520	     -1.98504000	      7.06207611	    -19.09053825	      0.45326476	     75.14171288	     44.61470637	      0.00000000	      0.00000000	      0.30313164	    -13.31296687	    -13.64842259	     37.85603600	     46.96866245	      0.00000000	      0.00000000
     24.01664286	     -2.01307352	     -4.59185046	     -2.68526070	      1.08791259	      0.92949340	      0.48200589	     13.51653277	      0.54896004	     -8.89066058	     21.41009122	     21.41009122	     11.87530250	      1.19093196	     -1.48903339	     10.57086691	    -13.45624586	     -7.78786918	     44.95856268	     44.95856268	      7.65262888	    -13.27364823	    -14.92528169	     -9.15195537	      2.76548502	     -1.77864441	      8.35326305	    -19.28590579	      0.27680826	     76.26190190	     44.59524106	      0.00000000	      0.00000000	     -0.19290760	    -13.27544513	    -13.72641777	     37.59149753	     46.96628075	      0.00000000	      0.00000000
     24.03028571	     -1.93113594	     -4.68189928	     -2.21969510	      1.08745228	      0.92927264	      0.48446605	     13.04391850	      0.75587195	     -9.20095250	     21.43309370	     21.43309370	     12.21297891	      1.02831417	     -1.62024716	     12.92453114	    -13.97887964	     -6.23675079	     49.12398540	     49.12398540	      5.40635580	    -14.39874476	    -14.90183869	     -9.26029663	      2.92203201	     -1.70171361	      9.69163716	    -19.52084945	      0.16159364	     77.69959489	     44.56287429	      0.00000000	      0.00000000	     -0.71118221	    -13.19037085	    -13.80688963	     37.31573391	     46.96435352	      0.00000000	      0.00000000
     24.04392857	     -1.93864735	     -4.63845919	     -1.71889192	      1.08672602	      0.92890233	      0.48649763	     12.72329800	      0.78960670	     -9.50589610	     21.51481966	     21.51481966	     12.54758084	      0.82830562	     -1.97453876	     15.44645460	    -14.09537979	     -4.48184285	     53.12460824	     53.12460824	      3.44700871	    -15.46644780	    -13.41370069	     -9.34717584	      2.97077785	     -1.59699210	     10.41823669	    -20.25395884	      0.82424198	     81.09467910	     44.47126657	      0.00000000	      0.00000000	     -1.23392832	    -12.94819372	    -14.39037560	     37.06961071	     47.00516977	      0.00000000	      0.00000000
